<svg viewBox="0 0 48 48" xmlns="http://www.w3.org/2000/svg">
    <path d="M24.0099 4C29.3698 4 33.7763 8.21182 34 13.5486H33.9477C33.954 13.7038 33.9242 13.8583 
        33.8606 14H34.1729C36.6069 14 39.1557 15.687 40.1777 19.7596L40.2887 20.2401L41.8265 32.6295C42.9332 
        40.5315 38.6099 43.8546 32.7124 43.9953L32.3169 44H15.7371C9.74355 44 5.12509 41.8159 6.14056 
        33.1671L6.20981 32.6295L7.76528 20.2401C8.53228 15.8544 11.1072 14.1245 13.5882 14.0065L13.8634 
        14H14.0198C13.9934 13.8507 13.9934 13.698 14.0198 13.5486C14.2434 8.21182 18.65 4 24.0099 
        4ZM18.194 20.6586C17.2178 20.6586 16.4264 21.4731 16.4264 22.4779C16.4264 23.4826 17.2178 
        24.2971 18.194 24.2971C19.1702 24.2971 19.9616 23.4826 19.9616 22.4779L19.9478 22.2497C19.8387 
        21.3526 19.0951 20.6586 18.194 20.6586ZM29.7716 20.6586C28.7954 20.6586 28.0041 21.4731 28.0041 
        22.4779C28.0041 23.4826 28.7954 24.2971 29.7716 24.2971C30.7478 24.2971 31.5392 23.4826 31.5392 
        22.4779C31.5392 21.4731 30.7478 20.6586 29.7716 20.6586ZM23.9315 6.60477C20.0833 6.60477 16.9637 
        9.71365 16.9637 13.5486C16.99 13.698 16.99 13.8507 16.9637 14H30.9864C30.9308 13.8559 30.9013 
        13.7031 30.8993 13.5486C30.8993 9.71365 27.7797 6.60477 23.9315 6.60477Z"/>
</svg>
