<?xml version="1.0" encoding="UTF-8"?>
<svg xmlns="http://www.w3.org/2000/svg" xmlns:xlink="http://www.w3.org/1999/xlink" viewBox="0 0 48 48" width="48px" height="48px">
<g id="surface690742">
<path style=" stroke:none;fill-rule:nonzero;fill:rgb(100%,100%,100%);fill-opacity:1;" d="M 25.089844 24.300781 C 25.089844 26.410156 26.800781 28.121094 28.90625 28.121094 L 35.980469 28.121094 C 34.765625 32.0625 31.777344 35.054688 27.460938 35.851562 C 20.597656 37.121094 13.734375 32.121094 13.078125 25.175781 C 12.398438 17.984375 18.039062 11.933594 25.089844 11.933594 C 27.09375 11.933594 28.980469 12.425781 30.644531 13.292969 C 32.15625 14.082031 34.011719 13.765625 35.214844 12.554688 C 37.125 10.648438 36.617188 7.429688 34.21875 6.199219 C 30.863281 4.472656 26.957031 3.671875 22.835938 4.121094 C 13.671875 5.125 6.214844 12.574219 5.210938 21.738281 C 3.890625 33.800781 13.296875 44 25.089844 44 C 37.824219 44 43.035156 34.96875 44.089844 27.203125 C 44.570312 23.644531 41.722656 20.5 38.132812 20.496094 L 28.910156 20.484375 C 26.800781 20.480469 25.089844 22.191406 25.089844 24.300781 Z M 25.089844 24.300781 "/>
</g>
</svg>
