<?xml version="1.0" encoding="UTF-8"?><svg version="1.1" xmlns="http://www.w3.org/2000/svg" xmlns:xlink="http://www.w3.org/1999/xlink" x="0px" y="0px" viewBox="0 0 1600 1200" style="enable-background:new 0 0 1600 1200;" xml:space="preserve" width="1600px" height="1200px">

<g id="background">
	<g>
		<g>
			<path d="M1256.6,884.3c-18.7-19.3-33-42.4-41.8-67.8c-0.3,0.6-0.7,1.2-1,1.8c2.3-0.5,4.5-0.9,6.8-1.4
				c1.3-0.3,1.5-2.1,0.4-2.7c-8.6-4.6-9.6-19.4-11.5-27.9c-2.5-11.1-4.8-22.2-6.8-33.3c-4.2-22.8-7.4-45.8-9.7-68.9
				c-0.8,0.4-1.5,0.9-2.3,1.3c16.7,9.9,32.6,21,47.5,33.5c13.4,11.3,26.8,23.4,36.3,38.2c10.2,15.7,15.1,34.7,18.1,52.9
				c3.4,20.1,3.4,40.6-1.4,60.5c-0.5,1.9,2.4,2.7,2.9,0.8c7.5-30.3,3.7-62.6-5.9-92c-9.3-28.1-30.3-48.4-52.8-66.6
				c-13.6-11-28.1-21-43.1-29.9c-0.9-0.5-2.4,0.1-2.3,1.3c2.4,24.7,5.9,49.2,10.5,73.5c2.3,12.1,4.8,24.2,7.7,36.1
				c1.9,8.1,3.2,18.7,11.3,23.1c0.1-0.9,0.2-1.8,0.4-2.7c-2.3,0.5-4.5,0.9-6.8,1.4c-0.8,0.2-1.3,1.1-1,1.8
				c9,25.9,23.5,49.4,42.6,69.1C1255.9,887.8,1258,885.7,1256.6,884.3L1256.6,884.3z" style="fill:#E8E8E8;"/>
		</g>
	</g>
	<g>
		<g>
			<path d="M1193.3,686.6c36.2,52.4,61.2,112,73.2,174.5c0.4,1.9,3.3,1.1,2.9-0.8c-12.1-62.8-37.2-122.7-73.6-175.3
				C1194.8,683.5,1192.2,685,1193.3,686.6L1193.3,686.6z" style="fill:#E8E8E8;"/>
		</g>
	</g>
	<g>
		<g>
			<path d="M1205.3,772.8c15.1,3.3,31,7,41.5,19.3c1.2,1.5,3.4-0.7,2.1-2.1c-10.8-12.7-27.2-16.7-42.8-20.1
				C1204.2,769.5,1203.4,772.4,1205.3,772.8L1205.3,772.8z" style="fill:#E8E8E8;"/>
		</g>
	</g>
	<g>
		<g>
			<path d="M1245.1,773c-1.1-14,1.1-27.9,6.7-40.8c0.8-1.8-1.8-3.3-2.6-1.5c-5.8,13.4-8.3,27.7-7.1,42.3
				C1242.3,774.9,1245.3,774.9,1245.1,773L1245.1,773z" style="fill:#E8E8E8;"/>
		</g>
	</g>
	<g>
		<g>
			<path d="M1269.2,745.5c7.2-44.8,37.9-79.6,67.3-112.1c-0.8-0.5-1.7-1-2.5-1.5c-6.9,24.7,9.3,47.6,15.2,70.8
				c3.2,12.8,4.7,26,5,39.2c0.2,6.5,0.1,13.1-0.1,19.6c-0.1,3.2-0.1,6.5-0.8,9.6c-1,4.3-5.8,11-10.9,6.5c-0.6,0.8-1.2,1.6-1.8,2.4
				c8.8,4.6,5.6,17.8,4.2,25.5c-1.8,10.4-4.8,20.3-11.5,28.7c-9.7,12-23.6,20.9-28.2,36.3c-0.6,1.9,2.3,2.6,2.9,0.8
				c5.7-18.8,25.8-27.8,34.1-45.2c4.3-9,6.2-19.6,7.1-29.4c0.7-7.1,0-15.6-7.1-19.2c-1.4-0.7-3.2,1.2-1.8,2.4
				c3.1,2.8,7.4,2.8,10.9,0.5c3.9-2.6,5.1-7.4,5.5-11.9c1.6-15.1,0.9-31-0.9-46c-1.8-15-5.8-29.1-11.4-43
				c-5.9-14.8-12-30.5-7.5-46.6c0.4-1.4-1.5-2.6-2.5-1.5c-29.7,32.9-60.8,68.2-68.1,113.4C1266,746.6,1268.9,747.4,1269.2,745.5
				L1269.2,745.5z" style="fill:#E8E8E8;"/>
		</g>
	</g>
	<g>
		<g>
			<path d="M1330.6,642.1c-20.8,51.3-33.7,105.5-38.3,160.7c-0.2,1.9,2.8,1.9,3,0c4.6-54.9,17.5-108.8,38.2-159.9
				C1334.2,641.2,1331.3,640.4,1330.6,642.1L1330.6,642.1z" style="fill:#E8E8E8;"/>
		</g>
	</g>
	<g>
		<g>
			<path d="M1044.8,799.2c24.5,5.3,48.4-6.5,72-11.2c26-5.1,52.8-5.1,78.9-0.4c1.9,0.3,2.7-2.5,0.8-2.9
				c-24.2-4.4-48.9-4.7-73.1-0.9c-12.4,2-24.4,5.4-36.4,8.8c-13.5,3.7-27.4,6.7-41.3,3.7C1043.7,795.9,1042.9,798.7,1044.8,799.2
				L1044.8,799.2z" style="fill:#E8E8E8;"/>
		</g>
	</g>
	<g>
		<g>
			<path d="M1351,790c14.2-2.7,28.2,0.7,41.9,4.1c13.4,3.2,26.9,6.1,40.6,8.5c26.4,4.6,53.2,7.3,80,8.4
				c1.9,0.1,1.9-2.9,0-3c-28.5-1.1-56.8-4.2-84.9-9.3c-13.6-2.5-27-5.6-40.4-8.8c-12.5-3-25.2-5.2-38-2.7
				C1348.4,787.5,1349.2,790.4,1351,790L1351,790z" style="fill:#E8E8E8;"/>
		</g>
	</g>
	<g>
		<g>
			<path d="M220.7,706.2c35.4-8.2,70.8-17.7,106.7-22.9c35.8-5.1,72.1-5.7,108.2-2.6c69.4,6,136.8,24.2,204.8,38.3
				c37.5,7.8,75.4,14.2,113.7,16.8c1.9,0.1,1.9-2.9,0-3c-70.2-4.8-138.4-22.7-207-37.3c-68.2-14.4-137.6-24.8-207.4-16.8
				c-40.5,4.7-80.1,15.4-119.8,24.6C218,703.7,218.8,706.6,220.7,706.2L220.7,706.2z" style="fill:#E8E8E8;"/>
		</g>
	</g>
	<g>
		<g>
			<path d="M504.7,686.6c58.7-5.1,116.2-18.9,173.1-33.7c58.2-15.2,116.4-30.6,174.6-46c58.1-15.3,116.1-31,174.4-45.9
				c29-7.4,58.3-14.1,88.1-16.9c28.7-2.7,57.7-2.3,86.4,0.4c67,6.2,132.2,24.1,196.9,41.9c1.9,0.5,2.7-2.4,0.8-2.9
				c-56.9-15.7-114.1-31.4-172.8-39.2c-29.2-3.9-58.8-5.9-88.3-4.7c-29,1.1-57.6,5.7-85.9,12.1c-28.8,6.6-57.3,14.5-85.9,22.1
				c-29.2,7.7-58.4,15.4-87.6,23.1c-59,15.5-118.1,31.1-177.1,46.6c-64.7,17-129.8,34.2-196.7,40
				C502.8,683.8,502.8,686.8,504.7,686.6L504.7,686.6z" style="fill:#E8E8E8;"/>
		</g>
	</g>
	<g>
		<g>
			<path d="M343.6,866.4c24.4,0.9,48.9,1.8,73.3,2.7c23.8,0.9,47.7,2.3,71.5,2.5c23.2,0.2,45.6-4.3,68.4-8.4
				c23.8-4.3,47.9-7.4,72-9.1c26.9-2,53.9-2.3,80.8-1.2c1.9,0.1,1.9-2.9,0-3c-47.2-2-94.5,0.7-141.1,8.3
				c-23.8,3.9-47.4,9.9-71.5,10.4c-23.6,0.6-47.5-1.2-71.1-2.1c-27.4-1-54.8-2-82.2-3C341.7,863.3,341.7,866.3,343.6,866.4
				L343.6,866.4z" style="fill:#E8E8E8;"/>
		</g>
	</g>
	<g>
		<g>
			<path d="M294.5,997.4c1.5,1.1,3,2.1,4.5,3.2c1.4,1,3-1.2,1.8-2.4c-4.6-4.8-9.1-9.5-13.7-14.3
				c-2.1-2.2-4.6-4.2-6.3-6.7c-2.6-3.8,0.1-5.6,0.7-8.7c0.7-3.2-2.5-5-4.3-7c-4-4.3-6.6-9.7-8.6-15.2c-8.3-22.7-11.2-48.3-12-72.3
				c-0.5,0.5-1,1-1.5,1.5c25.2-2.3,39.8,21.5,48.2,41.6c9.4,22.3,18,45.6,19.1,70.1c0.1,1.9,3.1,1.9,3,0
				c-1.2-26.2-10.6-51.6-21.2-75.4c-8.8-19.9-24.7-41.6-49.2-39.4c-0.8,0.1-1.5,0.6-1.5,1.5c0.5,12.9,1.7,25.7,3.8,38.4
				c2.1,12.4,4.5,25.2,9.1,36.9c1.7,4.3,3.8,8.4,6.6,12c2,2.5,5.4,4.7,4.2,8.4c-0.5,1.5-1.5,2.3-1.4,4.1c0.2,4.4,5,8,7.7,10.8
				c5,5.2,10.1,10.5,15.1,15.7c0.6-0.8,1.2-1.6,1.8-2.4c-1.5-1.1-3-2.1-4.5-3.2C294.4,993.7,292.9,996.3,294.5,997.4L294.5,997.4z" style="fill:#E8E8E8;"/>
		</g>
	</g>
	<g>
		<g>
			<path d="M313.1,929.3c8.7-22.8,24-42.7,43.9-56.8c-0.7-0.2-1.4-0.4-2.1-0.5c5.6,12.8,9.4,26.2,11.4,40
				c0.3-0.6,0.7-1.2,1-1.8c-2.4,0.7-4.8,1.4-7.3,2.1c-1,0.3-1.3,1.3-0.9,2.2c2.8,6.7,5.9,14.3,2.8,21.4c-2.6,5.9-8.2,10.3-12.1,15.2
				c-7.1,8.8-12.6,18.6-16.8,29c-0.7,1.8,2.2,2.6,2.9,0.8c5.6-14.1,14-25.3,23.9-36.6c3.6-4.1,6.3-8.6,6.5-14.2
				c0.2-6-2.3-11.7-4.6-17.1c-0.3,0.7-0.6,1.5-0.9,2.2c2.4-0.7,4.8-1.4,7.3-2.1c0.8-0.2,1.2-1,1-1.8c-2.1-14.1-6-27.7-11.7-40.8
				c-0.3-0.7-1.4-1-2.1-0.5c-20.6,14.7-36.3,35-45.3,58.6C309.6,930.3,312.4,931.1,313.1,929.3L313.1,929.3z" style="fill:#E8E8E8;"/>
		</g>
	</g>
	<g>
		<g>
			<path d="M265.5,890.2c25.5,29.3,42.1,65.8,47.2,104.3c0.3,1.9,3.3,1.9,3,0c-5.3-39.4-22-76.5-48.1-106.5
				C266.3,886.6,264.2,888.7,265.5,890.2L265.5,890.2z" style="fill:#E8E8E8;"/>
		</g>
	</g>
	<g>
		<g>
			<path d="M326.7,960.9c4.7-16.6,11.3-32.5,19.8-47.6c0.9-1.7-1.6-3.2-2.6-1.5c-8.6,15.3-15.3,31.5-20.1,48.3
				C323.2,962,326.1,962.8,326.7,960.9L326.7,960.9z" style="fill:#E8E8E8;"/>
		</g>
	</g>
	<g>
		<g>
			<path d="M266.5,835.7c35-6.8,70.8-9.4,106-2.7c16.4,3.1,32.6,6.7,49.2,8.6c17.5,2,35.2,2.8,52.8,3.5
				c1.9,0.1,1.9-2.9,0-3c-17.6-0.8-35.3-1.5-52.8-3.5c-18.2-2.1-36-6.4-54.1-9.5c-33.8-5.8-68.5-2.7-101.9,3.8
				C263.8,833.2,264.6,836.1,266.5,835.7L266.5,835.7z" style="fill:#E8E8E8;"/>
		</g>
	</g>
	<g>
		<g>
			<path d="M398.4,954.6c20-3.2,40-6.5,60.2-7.7c20.5-1.2,40.3,0.5,60.4,4.2c18.4,3.4,36.2,5,55,4.6
				c19.5-0.5,39.2-1.4,58.2,3.7c1.9,0.5,2.7-2.4,0.8-2.9c-18.4-5-37.3-4.4-56.2-3.9c-10,0.3-20.1,0.4-30.1-0.4
				c-10.3-0.8-20.5-2.9-30.6-4.7c-19.4-3.5-38.7-4.8-58.5-3.6c-20.1,1.3-40.1,4.5-60,7.7C395.7,952,396.5,954.9,398.4,954.6
				L398.4,954.6z" style="fill:#E8E8E8;"/>
		</g>
	</g>
	<g>
		<g>
			<path d="M948.1,978.5c37.5-5.4,75.2-8.6,113.1-9.4c36.9-0.8,73.8,0.7,110.7,1.5c1.9,0,1.9-3,0-3
				c-37.5-0.8-75.1-2.3-112.7-1.4c-37.5,0.9-74.8,4.1-111.9,9.4C945.4,975.9,946.2,978.7,948.1,978.5L948.1,978.5z" style="fill:#E8E8E8;"/>
		</g>
	</g>
	<g>
		<g>
			<path d="M1114.3,1000c14.3-6.1,29.7,1.3,44.4,0.6c3.1-0.2,6.3-0.6,9.3-1.6c4.1-1.4,7.9-3.6,12.3-3.8
				c7.6-0.4,14.7,2.5,22.3,1.3c1.9-0.3,1.1-3.2-0.8-2.9c-8.5,1.4-16.8-2.8-25.2-0.9c-3.8,0.8-7.2,2.8-10.9,3.9
				c-3.8,1-7.7,1.2-11.6,1.1c-13.9-0.6-27.8-5.9-41.4-0.1C1111.1,998.1,1112.6,1000.7,1114.3,1000L1114.3,1000z" style="fill:#E8E8E8;"/>
		</g>
	</g>
	<g>
		<g>
			<path d="M1316.6,889.5c25.2-7.5,50.4-7.3,76.2-4.2c24.3,2.9,48.8,6.7,73.2,2.4c1.9-0.3,1.1-3.2-0.8-2.9
				c-25.4,4.5-50.9-0.1-76.2-2.9c-24.9-2.8-49.2-2.5-73.3,4.8C1314,887.2,1314.7,890.1,1316.6,889.5L1316.6,889.5z" style="fill:#E8E8E8;"/>
		</g>
	</g>
	<g>
		<g>
			<path d="M1216.1,317.7c-18.6-10-30.7-29.4-27.9-50.9c2.5-19.7,18.3-36.7,37.6-41.3c19.7-4.6,41.7,4.7,52.4,21.8
				c11.5,18.3,9,42.5-5.1,58.7c-16,18.4-44,21.2-64.2,8.2c-1.6-1.1-3.1,1.5-1.5,2.6c18.8,12.2,44.8,11.4,62.2-3.1
				c17.3-14.4,23.7-39.4,15.1-60.3c-8.2-19.9-29.2-32.9-50.7-32c-21.2,1-40.4,16.3-46.8,36.4c-8,24.9,5.4,50.5,27.5,62.4
				C1216.3,321.2,1217.8,318.6,1216.1,317.7L1216.1,317.7z" style="fill:#E8E8E8;"/>
		</g>
	</g>
	<g>
		<g>
			<path d="M353,536.4c10.2-9.1,24.5-2.9,32.1,6.3c3.9,4.7,6.2,10,9.2,15.2c1.9,3.5,4.7,7,8.9,7.8c3.3,0.6,6-0.6,8.2-3
				c1.4-1.6,2.3-3.7,3.7-5.3c3-3.5,6.9-3.1,10.1-0.3c7,6.1,7.3,21.2,19.6,20.1c1.9-0.2,1.9-3.2,0-3c-12.8,1.2-11.3-20.3-23.6-22.4
				c-3.6-0.6-6.5,1-8.7,3.8c-1.4,1.8-2.3,4.3-4.1,5.8c-5.2,4.3-9.8-1.7-11.9-5.8c-5.1-9.4-10.1-19.2-20.2-24.1
				c-8.3-4-18.4-3.6-25.4,2.7C349.5,535.5,351.6,537.7,353,536.4L353,536.4z" style="fill:#E8E8E8;"/>
		</g>
	</g>
	<g>
		<g>
			<path d="M1026.1,401.8c-2-5.4-4.4-11.8-0.8-17.1c3.3-4.7,8.9-2.3,13.6-3.8c6.2-2,10-8.1,11.7-14
				c2-6.9-0.4-15.9,3.7-22c5-7.5,15.8,1.7,22.6-2.9c1.6-1.1,0.1-3.7-1.5-2.6c-6.9,4.7-16.3-4.9-22.8,2.8c-5.2,6.1-2.8,15.4-4.5,22.6
				c-1.2,5-3.9,10.3-8.6,12.7c-4.1,2.1-8.8,0-12.9,2.1c-8.8,4.5-6,15.7-3.3,23C1023.8,404.3,1026.7,403.6,1026.1,401.8L1026.1,401.8
				z" style="fill:#E8E8E8;"/>
		</g>
	</g>
	<g>
		<g>
			<path d="M1036.9,331.7c-1.9-5-0.8-10.7,2.9-14.7c4.6-5,9.9-3,15.6-5c3.4-1.2,5.4-4.1,6.7-7.3c0.8-2,1.3-4.1,2-6.1
				c0.6-1.6,1.3-3.4,2.5-4.6c1.8-1.7,6.1-3.1,7.2,0.7c0.6,1.8,3.4,1.1,2.9-0.8c-1.3-4.2-6.2-5.7-10-3.7c-7.2,3.7-4.6,14.7-11.3,18.4
				c-3.7,2-8.3,0.8-12.2,2.4c-2.5,1.1-4.7,2.9-6.4,5c-3.7,4.7-4.9,10.9-2.8,16.5C1034.6,334.3,1037.5,333.5,1036.9,331.7
				L1036.9,331.7z" style="fill:#E8E8E8;"/>
		</g>
	</g>
	<g>
		<g>
			<path d="M1121.1,438.5c-3-4.3-2.1-10.4,1.8-14c4.5-4.2,11-2.3,14.1,2.5c7.1,10.7-8.6,20.1-16.1,11.2
				c-1.3-1.5-3.4,0.7-2.1,2.1c4.3,5.1,12.3,5.7,17.8,2.1c6.2-4,6.7-12.1,2.4-17.8c-4.2-5.6-12-7.5-17.6-2.9
				c-5.3,4.3-6.9,12.5-2.9,18.2C1119.6,441.6,1122.2,440.1,1121.1,438.5L1121.1,438.5z" style="fill:#E8E8E8;"/>
		</g>
	</g>
	<g>
		<g>
			<path d="M1132.4,455.1c-2.8-3.9-6.3-8.6-5.1-13.6c1.8-7.4,10.6-5.5,14.6-1.1c3.3,3.7,4.5,9.5,0.3,13
				c-3.2,2.7-8.1,3.2-11,0c-1.3-1.4-3.4,0.7-2.1,2.1c4,4.3,10.8,3.9,15.1,0.2c5.1-4.4,4.5-11.7,0.5-16.6c-4-5-13.1-8.6-18.1-2.9
				c-5.6,6.4-0.9,14.7,3.2,20.4C1130.9,458.2,1133.5,456.7,1132.4,455.1L1132.4,455.1z" style="fill:#E8E8E8;"/>
		</g>
	</g>
	<g>
		<g>
			<path d="M459.9,663.5c11.2,3.4,22.6,5.4,34.2,5.8c1.9,0.1,1.9-2.9,0-3c-11.4-0.4-22.6-2.3-33.4-5.7
				C458.8,660,458,662.9,459.9,663.5L459.9,663.5z" style="fill:#E8E8E8;"/>
		</g>
	</g>
	<g>
		<g>
			<path d="M1209.9,583.5c68-0.5,132,24.9,196.2,43.7c18.4,5.4,37,10.3,55.8,14c1.9,0.4,2.7-2.5,0.8-2.9
				c-66.7-13.2-129.6-41.5-196.7-53c-18.5-3.2-37.3-5-56.1-4.8C1208,580.5,1208,583.5,1209.9,583.5L1209.9,583.5z" style="fill:#E8E8E8;"/>
		</g>
	</g>
	<g>
		<g>
			<path d="M541.4,149.9c3.5,8.4,7.8,27,20.4,18.7c4.2-2.7,10.4-10.6,14.9-4.2c2.7,3.8,2.9,8.8,8,10.5
				c1.8,0.6,2.6-2.3,0.8-2.9c-4.7-1.6-4.7-8.8-8.5-11.7c-2.5-1.9-5.6-1.8-8.3-0.4c-4,1.9-6.9,6.2-11.1,7.6
				c-7.5,2.5-11.3-13.6-13.3-18.4C543.5,147.4,540.6,148.1,541.4,149.9L541.4,149.9z" style="fill:#E8E8E8;"/>
		</g>
	</g>
	<g>
		<g>
			<path d="M572.5,151.7c5.6-4.3,13.8-2.3,16.6,4.2c1.7,4.1,3,6.5,7.8,6.8c2.3,0.1,4.8-0.7,7.1-0.3
				c4.8,0.8,4.8,5,5.6,8.9c0.8,3.9,2.6,7.3,6.8,7.8c1.9,0.2,1.9-2.8,0-3c-5.5-0.6-3.2-11.9-7.5-15.1c-4.6-3.4-11.5,1.1-15.1-3.1
				c-1.7-2-2.2-4.7-4-6.7c-1.4-1.7-3.3-2.9-5.4-3.7c-4.5-1.8-9.5-1.2-13.3,1.7C569.4,150.3,570.9,152.9,572.5,151.7L572.5,151.7z" style="fill:#E8E8E8;"/>
		</g>
	</g>
	<g>
		<g>
			<path d="M662.5,246c6.3,1.3,13-2.7,14.7-9.1c1.6-6-2.3-11.7-8-13.6c-13.3-4.5-20.7,13.8-9.9,21.3
				c1.6,1.1,3.1-1.5,1.5-2.6c-7.6-5.3-2.9-18.6,6.8-16.1c4.2,1.1,7.7,4.9,6.9,9.4c-0.9,5.1-6.1,8.8-11.2,7.7
				C661.4,242.7,660.6,245.6,662.5,246L662.5,246z" style="fill:#E8E8E8;"/>
		</g>
	</g>
	<g>
		<g>
			<path d="M672.2,251.1c-2.4-1.9-5.3-4-6.3-7.1c-1.4-4.2,2.6-9.2,7.3-8c3.3,0.9,5.6,4.7,4.8,8.1
				c-1,3.8-5.3,5.7-8.9,4.8c-1.9-0.5-2.7,2.4-0.8,2.9c4.9,1.2,10.3-1.1,12.3-5.9c1.9-4.7-0.7-10.4-5.3-12.4c-4.6-1.9-9.9,0.6-11.9,5
				c-2.8,6.1,2.3,11.2,6.8,14.7C671.5,254.4,673.7,252.3,672.2,251.1L672.2,251.1z" style="fill:#E8E8E8;"/>
		</g>
	</g>
	<g>
		<g>
			<path d="M472.7,448.6c-4.6-4.1-5.5-10.3-1-14.9c3.9-3.9,9.7-3.8,13.4,0.3c7.7,8.6-3.4,19.8-12.5,13.9
				c-1.6-1.1-3.1,1.5-1.5,2.6c5.4,3.5,12.8,2.3,17-2.5c4.3-5,3-12.5-1.6-16.9c-4.9-4.6-12.2-4.3-16.9,0.4c-5.7,5.7-4.8,14,1,19.2
				C472,452,474.1,449.9,472.7,448.6L472.7,448.6z" style="fill:#E8E8E8;"/>
		</g>
	</g>
	<g>
		<g>
			<path d="M899,165.9c5.8-12.7,13.9-24,23.9-33.7c1.4-1.3-0.7-3.5-2.1-2.1c-10.2,9.9-18.4,21.4-24.4,34.4
				C895.6,166.1,898.2,167.7,899,165.9L899,165.9z" style="fill:#E8E8E8;"/>
		</g>
	</g>
	<g>
		<g>
			<path d="M911.5,163.9c6-7.4,12.7-14.3,19.9-20.6c1.5-1.3-0.7-3.4-2.1-2.1c-7.2,6.3-13.8,13.2-19.9,20.6
				C908.2,163.3,910.3,165.4,911.5,163.9L911.5,163.9z" style="fill:#E8E8E8;"/>
		</g>
	</g>
	<g>
		<g>
			<path d="M919.1,172.9c2.7-2.3,5.4-4.5,8.1-6.8c1.5-1.2-0.7-3.4-2.1-2.1c-2.7,2.3-5.4,4.5-8.1,6.8
				C915.5,172,917.6,174.1,919.1,172.9L919.1,172.9z" style="fill:#E8E8E8;"/>
		</g>
	</g>
</g>
<g id="color">
	<circle cx="1060.6" cy="167.1" r="14.6" style="fill:#5222D0;"/>
	<circle cx="1053.9" cy="195.7" r="8.7" style="fill:#5222D0;"/>
	<circle cx="593" cy="581.6" r="10.7" style="fill:#5222D0;"/>
	<circle cx="610.4" cy="615.7" r="5.9" style="fill:#5222D0;"/>
	<g>
		<g>
			<path d="M714.6,460.1c0.9,8.7,3.7,16.4,13.6,16.2c3.4,0,6.3-1,8.9,1.6c2.4,2.4,1.7,4.8,2.7,7.8
				c0.5,1.5,1.2,2.9,2.6,3.9c1.8,1.3,8.6,1.3,8,4.3c-0.4,1.9,2.5,2.7,2.9,0.8c0.7-3.4-1.6-5.4-4.8-6.3c-4.6-1.3-5.7-3.1-6.4-7.2
				c-0.3-1.9-0.7-3.8-2-5.4c-2.6-3.1-6.8-2.7-10.4-2.6c-3.9,0.2-7.6-0.1-9.7-3.9c-1.6-2.8-2-6.2-2.3-9.3
				C717.4,458.2,714.4,458.2,714.6,460.1L714.6,460.1z" style="fill:#5222D0;"/>
		</g>
	</g>
	<g>
		<g>
			<path d="M724.8,496.9c5.2-5.5,11.4,0.1,13,5.6c0.7,2.2,0.8,4.3,2.4,6c3.6,4,10.2,1.8,13.5,6c1.2,1.5,3.3-0.6,2.1-2.1
				c-2.2-2.8-5.3-3.2-8.6-3.9c-3.1-0.7-4.8-1.8-6-4.9c-0.8-1.9-0.9-3.9-2-5.8c-3.4-6.1-11.4-8.5-16.5-3.1
				C721.3,496.2,723.4,498.3,724.8,496.9L724.8,496.9z" style="fill:#5222D0;"/>
		</g>
	</g>
	<g>
		<g>
			<path d="M1080,486.8c-1.9-3.6,2.1-6.3,5.1-4.1c0.9,0.6,2.3-0.2,2.3-1.3c-0.3-3.4,3.1-5.9,6.3-4.7
				c1.8,0.7,2.6-2.2,0.8-2.9c-5-1.9-10.5,2.3-10.1,7.6c0.8-0.4,1.5-0.9,2.3-1.3c-5.7-4.1-12.4,2.2-9.2,8.2
				C1078.3,490,1080.9,488.5,1080,486.8L1080,486.8z" style="fill:#5222D0;"/>
		</g>
	</g>
	<g>
		<g>
			<path d="M1097,485.2c-0.7-1.7,4.1-2,4.9-2c2.5,0.1,4.9,0.5,7.4,0.7c1.9,0.2,1.9-2.8,0-3c-3.9-0.4-8.3-1.5-12.1,0.1
				c-2.5,1.1-3.9,3.1-2.8,5.7C1095.1,488.5,1097.7,486.9,1097,485.2L1097,485.2z" style="fill:#5222D0;"/>
		</g>
	</g>
	<circle cx="575.9" cy="593.4" r="11.8" style="fill:#EC615B;"/>
	<circle cx="687.6" cy="147" r="15.9" style="fill:#EC615B;"/>
	<circle cx="399.4" cy="757.5" r="20.1" style="fill:#EC615B;"/>
	<circle cx="1085.5" cy="696.4" r="10.3" style="fill:#EC615B;"/>
</g>
<g id="legs">
	<path d="M970.9,941c21.2-5.1,42.5-10.3,63.7-15.4c13.6,1,33.8,1.3,57.8-2.7c22.8-3.8,66.5-14.5,66.2-26.3
		c-0.2-7.8-19.7-13.4-51.9-22.7c-21.3-6.1-39.2-9.7-51.1-11.8c-13.2,6.5-27.4,12.9-42.7,19c-20.7,8.3-40.4,14.8-58.7,19.9
		C959.7,914.4,965.3,927.7,970.9,941z" style="fill:#161616;stroke:#161616;stroke-width:3;stroke-miterlimit:10;"/>
	<path d="M918.5,920.7c21.2-5.1,42.5-10.3,63.7-15.4c13.6,1,33.8,1.3,57.8-2.7c22.8-3.8,66.5-14.5,66.2-26.3
		c-0.2-7.8-19.7-13.4-51.9-22.7c-21.3-6.1-39.2-9.7-51.1-11.8c-13.2,6.5-27.4,12.9-42.7,19c-20.7,8.3-40.4,14.8-58.7,19.9
		C907.3,894.2,912.9,907.5,918.5,920.7z" style="fill:#161616;stroke:#161616;stroke-width:3;stroke-miterlimit:10;"/>
	<path d="M809.1,736c-18.9,10.2-35.2,21.5-38,23.4c-9.6,6.7-32,22.4-54.2,45.3c-32.8,33.8-60.4,62.2-58.6,98.2
		c1.6,32.4,26.1,54.9,28.8,57.3c43.7,39,137.1,24.8,231.4-35.3c-3.4-17.9-6.7-35.7-10.1-53.6c8.4-1.7,27.4-6.8,44.7-23.1
		c21.5-20.3,26.3-44.9,27.5-52.9c-0.1-9.1-1.2-19.8-4.3-31.4c-9.5-35.6-32.1-58.1-44.1-68.4C901.1,700.9,854.3,711.8,809.1,736z" style="fill:#FFFFFF;stroke:#161616;stroke-width:3;stroke-miterlimit:10;"/>
	<path d="M880.6,754.7c-19.2,10.4-36.3,22.2-38,23.4c-24.8,17.3-42.3,33.9-54.2,45.3c-42.5,40.8-72.7,68.5-68.7,102.1
		c3.9,32.3,36.2,51.8,38.9,53.3c18.9,11,38.1,11.3,53.5,10.5c69.2-3.6,146.8-33.1,177.9-45.8c-3.4-17.9-6.7-35.7-10.1-53.6
		c8.4-2.8,32.2-12.2,47.9-37c2.4-3.8,10.8-17.7,13.1-37.6c0.7-5.7,1.5-17.7-4.8-42.6c-3.9-15.4-10.9-36.9-24-61.3
		C984.5,716.3,930.6,727.7,880.6,754.7z" style="fill:#FFFFFF;stroke:#161616;stroke-width:3;stroke-miterlimit:10;"/>
	<g>
		<g>
			<path d="M871.5,909c37.1,0.9,74.1-4.7,109.2-16.6c1.8-0.6,1-3.5-0.8-2.9c-34.9,11.9-71.5,17.5-108.4,16.5
				C869.6,905.9,869.6,908.9,871.5,909L871.5,909z" style="fill:#161616;"/>
		</g>
	</g>
	<g>
		<g>
			<path d="M861.8,898.5c2.5,4.3,6.3,7.7,10.9,9.6c1.8,0.7,3.3-1.8,1.5-2.6c-4.2-1.8-7.5-4.6-9.8-8.5
				C863.4,895.3,860.8,896.8,861.8,898.5L861.8,898.5z" style="fill:#161616;"/>
		</g>
	</g>
	<path d="M924.8,824.4c-34.8,19.5-52.8,16.3-87.4,43.3c-9,7.1-61.6,48.2-54.9,89.9c0.6,3.5,3.7,23.1,18.3,30.8
		c6.2,3.3,12.3,3.1,20.8,2.5c28.5-2.2,50.5-7.6,53.2-8.3c35-8.7,29.1-5.1,53.2-11.6c15.9-4.3,37.4-11.1,62.4-21.6
		c-3.3-17.5-6.7-34.9-10-52.4c7.3-3.4,17.3-9.1,27.5-18.3c7.4-6.7,28.5-25.7,33.3-55.7c2.6-16.1-0.6-28.4-5.8-48.3
		c-5.3-20.3-12.7-36.1-18.3-46.6C985.9,782.8,950.9,809.9,924.8,824.4z" style="opacity:0.12;fill:#3D3D3D;"/>
	<path d="M887.4,738.1c-1.4-2.4-45.4,17.6-95.7,54.1c-62.2,45.1-96.7,71.8-98.2,109.8c-1.7,44.3,59,81.3,61.6,79
		c1.4-1.3-35.2-26.6-35.8-63.2c-0.4-23.9,14.8-42.8,41.6-69.9C829.4,778.6,889.1,741,887.4,738.1z" style="opacity:0.11;fill:#3D3D3D;"/>
	<path d="M1028.8,759.8c-4.6,18.2-14.1,45.1-34.9,71.6c-44.3,56.3-107.2,69.3-125.6,72.4c3.1,3,6.1,6.4,9.2,10
		c16.6,20,24.8,41.4,29.1,58.2c27.2-9.4,54.4-18.9,81.5-28.3c-4.2-16.6-8.3-33.3-12.5-49.9c8.6-3.5,22.6-10.6,35.8-24.1
		c5.5-5.7,18.8-19.6,25-41.6C1045.4,795.5,1032.8,767.7,1028.8,759.8z" style="opacity:0.12;fill:#3D3D3D;"/>
</g>
<g id="hand_r">
	<path d="M812.6,469.6c8.4,1.2,12,26.3,13.2,34.6c4.9,33.7-5.5,48.8-7.1,90.1c-1.3,32.8,4.7,34.3,2,50.3
		c-4,23.4-22.5,53.4-88.2,80.6c-4.9,5.3-13.6,13.6-26.2,18.9c-26.5,11.2-61.3,5.4-66-10.7c-1.6-5.4-0.1-12.9,3.6-16.4
		c6-5.8,15.2,2.5,30.4-3c0.8-0.3,7.6-2.8,7.4-4.6c-0.1-1.1-2.7-1.5-5.8-1.9c-14.1-2-18.3-1.6-18.6-2.8c-0.5-2,10.3-8.9,24.3-12.9
		c10.8-3.1,25.4-5.8,43.4-4.9c15.7-17.7,31.5-35.4,47.2-53.1c-1.5-22.8-1.2-55.3,7.4-92.2C785.9,514.8,800.8,467.9,812.6,469.6z" style="fill:#FFFFFF;stroke:#161616;stroke-width:3;stroke-miterlimit:10;"/>
	<path d="M813,469.1c-12.3,0.2-23.4,49.1-25.7,83.8c-2.9,43.9,8.6,57.6,0,84.5c-5.7,17.8-20.1,40.7-58.8,61.5
		c-30.5,25.5-50.8,28.2-64.2,25c-8.2-1.9-18.4-7.2-23-2.7c-3.9,3.8-2.1,13.2,2,19.6c9.8,14.9,39.3,11.3,56.1,5.4
		c15.6-5.5,25.9-15.1,31.8-21.6c13.7-3.7,45.7-14.4,72.3-44.6c25.9-29.4,32-60.7,35.1-77.7C850.5,537.6,828,468.8,813,469.1z" style="opacity:0.12;fill:#3D3D3D;"/>
</g>
<g id="torso">
	<path d="M964.7,411.6c35.6,7.5,62.6,37.6,74.3,65.3c12.9,30.4,5.4,54.2-1.8,104.5c-4.9,34.5-10.2,84.2-10.2,146.3
		c-10.8,8.2-61.9,45.6-131.5,36.1c-44.2-6-74.4-27.9-87.7-39c2.2-16,4.4-40.8,1.8-70.8c-3.8-42.2-14-58.7-15.9-92.1
		c-1.2-21.1,0.6-52.2,16.8-91.2c9.1-6.2,22-14.4,38.1-23C898.6,421,929.9,404.3,964.7,411.6z" style="fill:#EC615B;"/>
	<path d="M930.1,458.3c9.2,24.6,22.2,70.2,15.3,126.6c-11.5,93.7-70.2,151.6-88.4,168.2c14.6,5.8,44.8,15.4,83.3,11
		c43.5-5,73.3-25.2,85.8-34.8c-1.1-41.6,1.4-76.2,4.2-101.9c8.6-77.4,24.1-105.3,7.6-147.8c-3.9-10.1-17-43.9-50.1-59.5
		c-8.7-4.1-16.6-5.9-22.1-6.8c-2,7.1-6.6,19.8-17.8,31.4C941.7,451.3,935.2,455.5,930.1,458.3z" style="opacity:0.14;fill:#3D3D3D;"/>
	<path d="M1041.4,494c-26.3,71.4-52.7,142.7-79,214.1c-22.9,18.7-45.9,37.4-68.8,56.1c17.1,1.5,44.3,1.6,75.6-7.6
		c26-7.7,45.7-19.1,58.6-28c-0.3-10.6-0.5-26.2,0-45c1.4-47.2,2-70.8,8.5-99.4c6-26.4,14.1-46.5,8.5-76.5
		C1043.7,501.7,1042.4,497,1041.4,494z" style="opacity:0.21;fill:#3D3D3D;"/>
</g>
<g id="newsletters">
	<path d="M617.7,700.5c11.9,28.8,23.9,57.6,35.8,86.3c48.4-16.8,96.9-33.7,145.3-50.5c-11.6-27.7-23.2-55.5-34.7-83.2
		C715.3,668.9,666.5,684.7,617.7,700.5z" style="fill:#FFFFFF;stroke:#161616;stroke-width:3;stroke-miterlimit:10;"/>
	<path d="M602.1,605.3c16.2,11.8,35.6,28.3,54.7,50.5c15.5,18,27.1,35.5,35.8,50.5c19-29.5,37.9-59,56.9-88.4
		c-22.1-24.6-44.2-49.1-66.3-73.7C656.1,564.6,629.1,584.9,602.1,605.3z" style="fill:#FFFFFF;stroke:#161616;stroke-width:3;stroke-miterlimit:10;"/>
	<path d="M514.5,468.1c0,27,0,54,0,81.1c20.7-10.2,41.4-20.4,62.1-30.5c13.7-6.7,27.4-13.4,41.1-20
		c-3.9-19.7-7.7-39.3-11.6-59C575.6,449.1,545.1,458.6,514.5,468.1z" style="fill:#FFFFFF;stroke:#161616;stroke-width:3;stroke-miterlimit:10;"/>
	<path d="M454.2,295.7c10.2,24.2,20.4,48.4,30.5,72.6c36.1-20.7,72.3-41.4,108.4-62.1c-15.1-28.8-30.2-57.6-45.3-86.3
		c-9.5,11-21,22.9-34.7,34.7C492.2,272.8,471.7,286,454.2,295.7z" style="fill:#FFFFFF;stroke:#161616;stroke-width:3;stroke-miterlimit:10;"/>
	<path d="M304.7,327.3c-3.2,18.6-6.3,37.2-9.5,55.8c36.8-8.4,73.7-16.8,110.5-25.3c-0.7-20.4-1.4-40.7-2.1-61.1
		C370.7,306.9,337.7,317.1,304.7,327.3z" style="fill:#FFFFFF;stroke:#161616;stroke-width:3;stroke-miterlimit:10;"/>
	<g>
		<g>
			<path d="M618.8,703c34.6,5.1,68.9,11.5,102.9,19.2c1.9,0.4,2.7-2.5,0.8-2.9c-34.1-7.7-68.4-14.2-102.9-19.2
				C617.7,699.9,616.9,702.8,618.8,703L618.8,703z" style="fill:#161616;"/>
		</g>
	</g>
	<g>
		<g>
			<path d="M762.1,654.5c-11.1,23.1-24.6,45-40.3,65.2c-1.2,1.5,0.9,3.6,2.1,2.1c15.9-20.4,29.6-42.5,40.8-65.8
				C765.5,654.3,762.9,652.8,762.1,654.5L762.1,654.5z" style="fill:#161616;"/>
		</g>
	</g>
	<g>
		<g>
			<path d="M626.9,611.3c16.8-17.8,35.5-33.7,55.9-47.3c1.6-1.1,0.1-3.7-1.5-2.6c-20.6,13.8-39.5,29.8-56.5,47.8
				C623.4,610.5,625.6,612.7,626.9,611.3L626.9,611.3z" style="fill:#161616;"/>
		</g>
	</g>
	<g>
		<g>
			<path d="M641.4,620.3c12.6-13.9,26.5-26.5,41.5-37.6c1.5-1.1,0-3.7-1.5-2.6c-15.3,11.3-29.4,24-42.1,38.1
				C637.9,619.6,640,621.7,641.4,620.3L641.4,620.3z" style="fill:#161616;"/>
		</g>
	</g>
	<g>
		<g>
			<path d="M654,637.1c16.3-18.3,34.2-35.2,53.6-50.3c1.5-1.2-0.6-3.3-2.1-2.1c-19.3,15.1-37.3,31.9-53.6,50.3
				C650.6,636.4,652.8,638.5,654,637.1L654,637.1z" style="fill:#161616;"/>
		</g>
	</g>
	<g>
		<g>
			<path d="M675.4,657.4c5.7-9.2,13.3-17,20.8-24.8c8.2-8.3,16.4-16.7,24.6-25c1.4-1.4-0.8-3.5-2.1-2.1
				c-8.6,8.8-17.2,17.5-25.8,26.3c-7.4,7.5-14.5,15.2-20.1,24.1C671.8,657.5,674.4,659,675.4,657.4L675.4,657.4z" style="fill:#161616;"/>
		</g>
	</g>
	<g>
		<g>
			<path d="M649.5,744.4c1.8,8.2,4.8,15.9,8.9,23.1c0.9,1.7,3.5,0.2,2.6-1.5c-4-7.1-6.9-14.5-8.6-22.4
				C652,741.7,649.1,742.5,649.5,744.4L649.5,744.4z" style="fill:#161616;"/>
		</g>
	</g>
	<g>
		<g>
			<path d="M651.9,746.2c10-6,20.8-9.7,32.3-11.3c-0.6-0.3-1.2-0.7-1.8-1c2,6.5,3.9,12.9,5.9,19.4
				c0.6,1.8,3.5,1.1,2.9-0.8c-2-6.5-3.9-12.9-5.9-19.4c-0.3-0.9-1-1.2-1.8-1c-11.8,1.6-22.8,5.5-33,11.6
				C648.7,744.6,650.2,747.2,651.9,746.2L651.9,746.2z" style="fill:#161616;"/>
		</g>
	</g>
	<g>
		<g>
			<path d="M660.3,768.7c9.5-3.9,18.8-8.3,28-13c1.7-0.9,0.2-3.5-1.5-2.6c-8.9,4.6-18,8.8-27.3,12.7
				C657.7,766.6,658.5,769.5,660.3,768.7L660.3,768.7z" style="fill:#161616;"/>
		</g>
	</g>
	<g>
		<g>
			<path d="M736.8,723.6c11-5.9,22.7-10,34.9-12.5c1.9-0.4,1.1-3.3-0.8-2.9c-12.5,2.5-24.4,6.8-35.6,12.8
				C733.5,721.9,735.1,724.5,736.8,723.6L736.8,723.6z" style="fill:#161616;"/>
		</g>
	</g>
	<g>
		<g>
			<path d="M740.4,732.2c6.7-2.9,13.4-5.8,20-8.7c1.8-0.8,0.2-3.4-1.5-2.6c-6.7,2.9-13.4,5.8-20,8.7
				C737.1,730.4,738.7,732.9,740.4,732.2L740.4,732.2z" style="fill:#161616;"/>
		</g>
	</g>
	<g>
		<g>
			<path d="M523.5,478.6c23.8-7.9,47.6-17.5,72.3-22.3c1.9-0.4,1.1-3.3-0.8-2.9c-24.6,4.9-48.5,14.4-72.3,22.3
				C520.9,476.3,521.7,479.2,523.5,478.6L523.5,478.6z" style="fill:#161616;"/>
		</g>
	</g>
	<g>
		<g>
			<path d="M523.1,491.5c22.8-10.5,46.4-19,70.6-25.4c1.9-0.5,1.1-3.4-0.8-2.9c-24.5,6.5-48.3,15.1-71.3,25.7
				C519.9,489.7,521.4,492.3,523.1,491.5L523.1,491.5z" style="fill:#161616;"/>
		</g>
	</g>
	<g>
		<g>
			<path d="M521.3,504.5c10-4.1,19.8-8.5,29.5-13.2c1.7-0.8,0.2-3.4-1.5-2.6c-9.5,4.6-19.1,8.9-28.8,12.9
				C518.8,502.3,519.5,505.2,521.3,504.5L521.3,504.5z" style="fill:#161616;"/>
		</g>
	</g>
	<g>
		<g>
			<path d="M526.8,515.3c21.1-10.7,42.7-20.5,64.7-29.2c1.8-0.7,1-3.6-0.8-2.9c-22.3,8.8-44.1,18.7-65.4,29.5
				C523.5,513.6,525.1,516.2,526.8,515.3L526.8,515.3z" style="fill:#161616;"/>
		</g>
	</g>
	<g>
		<g>
			<path d="M466.9,301.9c28.4-13.8,54.8-31.2,78.8-51.6c1.5-1.3-0.7-3.4-2.1-2.1c-23.8,20.3-50.1,37.4-78.2,51.2
				C463.6,300.2,465.1,302.8,466.9,301.9L466.9,301.9z" style="fill:#161616;"/>
		</g>
	</g>
	<g>
		<g>
			<path d="M473,314.9c11.9-6.9,23.3-14.5,34.3-22.8c1.5-1.1,0-3.8-1.5-2.6c-11,8.3-22.4,15.9-34.3,22.8
				C469.8,313.3,471.3,315.9,473,314.9L473,314.9z" style="fill:#161616;"/>
		</g>
	</g>
	<g>
		<g>
			<path d="M480.6,324c25.6-13.7,50.2-28.9,73.9-45.7c1.6-1.1,0.1-3.7-1.5-2.6c-23.6,16.8-48.3,32-73.9,45.7
				C477.4,322.3,478.9,324.9,480.6,324L480.6,324z" style="fill:#161616;"/>
		</g>
	</g>
	<g>
		<g>
			<path d="M487,339.5c28.3-12.8,55.3-28.2,80.7-46.2c1.6-1.1,0.1-3.7-1.5-2.6c-25.3,18-52.3,33.4-80.7,46.2
				C483.7,337.7,485.2,340.2,487,339.5L487,339.5z" style="fill:#161616;"/>
		</g>
	</g>
	<path d="M626.1,588.7c10.7-2.4,21.4-4.8,32.1-7.2c15.2,32,30.4,64,45.6,95.9c15.2-19.7,30.4-39.3,45.6-59
		c-22.4-24.1-44.8-48.3-67.1-72.4C663.5,560.3,644.8,574.5,626.1,588.7z" style="opacity:0.13;fill:#3D3D3D;"/>
	<path d="M547.5,461.1c-5.6,25.7-11.2,51.5-16.8,77.2c28.6-13.7,57.2-27.5,85.9-41.2c-4.2-18.2-8.3-36.5-12.5-54.7
		C585.2,448.7,566.3,454.9,547.5,461.1z" style="opacity:0.21;fill:#3D3D3D;"/>
	<path d="M676.5,683.2c5.6,13.6,11.2,27.2,16.8,40.8c9.3,2.1,18.5,4.2,27.8,6.2c10.1,7,20.1,14.1,30.2,21.1
		c15.3-5.3,30.7-10.6,46-15.8c-11.7-26.5-23.3-53.1-35-79.6c-15.3,4.6-30.7,9.3-46,13.9c-8,12.8-16,25.6-24,38.4
		C687,699.8,681.8,691.5,676.5,683.2z" style="opacity:8.000000e-002;fill:#3D3D3D;"/>
	<path d="M323.5,328.5c-4.8,16.7-9.5,33.5-14.3,50.2c31.9-7.4,63.8-14.8,95.7-22.2c-1.1-19.2-2.1-38.4-3.2-57.6
		C375.6,308.8,349.5,318.7,323.5,328.5z" style="opacity:0.15;fill:#3D3D3D;"/>
	<path d="M499.5,271.4c3.7,54,6.5,80.9,8.5,80.9c0.6,0,1.1-2.7,1.6-7.9c26.2-13.2,52.5-26.4,78.7-39.6
		c-13.2-24.7-26.4-49.3-39.6-74C532.2,244.3,515.8,257.9,499.5,271.4z" style="opacity:0.11;fill:#3D3D3D;"/>
</g>
<g id="hand_l">
	<path d="M1016.2,451.9c13.5-1.8,29.9,37.4,36.9,60.8c11.8,39.6,7.6,74.3,3.6,106.5c-4.3,34.3-6.4,51.5-14.6,69.5
		c-26.5,58.2-93.1,80.5-119.2,87.7c-7.1,5.2-19.8,13.5-37.3,18.9c-37.1,11.4-85.8,6.5-92.5-12.6c-2.2-6.4-0.1-15.2,5-19.3
		c8.5-6.8,21.2,2.9,42.6-3.6c1.1-0.3,10.6-3.3,10.3-5.4c-0.2-1.3-3.7-1.7-8.1-2.2c-19.7-2.3-25.6-1.9-26-3.3
		c-0.6-2.4,14.5-10.4,34-15.2c15.2-3.7,35.6-6.9,60.8-5.8c24.6-22.6,49.2-45.3,73.8-67.9c-0.2-55.2,4.2-100.7,8.7-134.1
		C1003.6,458.1,1011.7,452.5,1016.2,451.9z" style="fill:#FFFFFF;stroke:#161616;stroke-width:3;stroke-miterlimit:10;"/>
	<g>
		<g>
			<path d="M791.6,781.9c3.8,4.1,10.8,5.3,15.9,6.8c7.5,2.1,15.2,3.7,23,4.7c1.9,0.3,2.7-2.6,0.8-2.9
				c-6.5-0.9-13-2.1-19.4-3.8c-5.5-1.4-14.3-2.6-18.2-7C792.4,778.4,790.3,780.5,791.6,781.9L791.6,781.9z" style="fill:#161616;"/>
		</g>
	</g>
	<g>
		<g>
			<path d="M793.3,772.8c12.5,7.7,26.5,12,41.2,12.7c1.9,0.1,1.9-2.9,0-3c-14.2-0.6-27.6-4.8-39.7-12.3
				C793.2,769.2,791.6,771.8,793.3,772.8L793.3,772.8z" style="fill:#161616;"/>
		</g>
	</g>
	<g>
		<g>
			<path d="M798.6,765.8c14,7.1,29.2,10.8,44.9,10.8c1.9,0,1.9-3,0-3c-15.2,0-29.9-3.5-43.4-10.4
				C798.4,762.3,796.9,764.9,798.6,765.8L798.6,765.8z" style="fill:#161616;"/>
		</g>
	</g>
	<path d="M1011,456.3c9,19.6,20.9,51.4,24.4,92.1c2.6,30.5,6.9,82.5-24.4,134.3c-30.8,50.9-77.5,71.1-94.8,78.5
		c-17.4,7.5-46.6,19.7-84.5,15.7c-15.3-1.6-27.7-5.4-36.3-8.7c-1.9,4.2-3.7,10.2-1.6,15.7c6.8,17.9,49.2,17.6,72,14.1
		c12.7-1.9,33.8-7,57.4-22.7c28.4-8.4,99-33.4,120.2-89.9c6.2-16.5,9.9-40.2,11.9-53.1c2.8-18.2,6.9-45.5,4.3-80.7
		c0,0-3.8-50.9-32-92.6c-1.3-2-4.3-6.2-8.7-6.5C1015.5,452.3,1012.5,454.8,1011,456.3z" style="opacity:0.15;fill:#3D3D3D;"/>
	<path d="M1057.6,590.1c-3-0.5-9.4,32.7-16.2,53.6c-11.8,36.2-40.6,84.1-117,131.6c17.3-3.9,41.9-12.1,66.6-29.8
		c12.5-9,33.6-24.1,48.2-52c10.1-19.3,12.8-36.6,16.2-59C1058.5,614.8,1060.1,590.5,1057.6,590.1z" style="opacity:9.000000e-002;fill:#3D3D3D;"/>
</g>
<g id="head">
	<path d="M781.5,268.2c-0.5,23.1-1,46.1-1.5,69.2c-7,29.2,3.9,58.8,26.6,73.8c24.7,16.3,52.3,8.1,56.3,6.8
		c0.2,5.6,0,12.6-1.5,20.5c-1.3,7.3-3.4,13.4-5.3,18.2c12.2,11.4,23.5,14.3,29.7,15.2c29.4,4.3,63-19.3,80.6-60.1
		c-5.3-5.6-12.4-14-19-25.1c-3.8-6.3-12.6-22.2-17.5-44.9c-5-23.2-0.1-26.3-3.8-43.3c-4.2-19.4-16.3-41.4-32.7-52.5
		C865.8,227.7,819.4,235.8,781.5,268.2z" style="fill:#FFFFFF;stroke:#161616;stroke-width:3;stroke-miterlimit:10;"/>
	<path d="M777.4,346.5c-7,3.8-7.5,15-8.2,29.8c-0.7,13.8-1.4,30.3,9,46.8c7.9,12.6,18.6,18.8,23,21.3
		c22.8,13,46,9,53.3,7.4c-4.6-1.9-9.3-3.8-13.9-5.7c5.7-0.2,15.3-1.3,25.4-6.6c10.4-5.4,16.3-12.6,21.3-18.9
		c5.9-7.4,15.2-21.1,20.5-41.8c-2.6-4.5-12.6-22.7-7.4-45.1c2.9-12.4,9.2-20.9,13.1-25.4c6.1,0.4,9.4,2.9,10.7,4.1
		c6.7,6.1,7.5,18.6,0.8,30.4c2.9-2.1,9.8-7.9,13.1-18.1c3.5-10.6,0.7-19.5-0.8-24.6c-1.9-6.1-4.7-15.2-13.1-19.7
		c-2.4-1.3-6.2-2.9-10.7-2.5c-14.4,1.4-17.4,24.5-34.2,45.8c-12.6,15.9-38.5,37.7-64,34.8C796.1,356.3,786.9,341.3,777.4,346.5z" style="fill:#161616;stroke:#161616;stroke-width:3;stroke-miterlimit:10;"/>
	<g>
		<g>
			<path d="M812.6,306.6c1.2,15.8,1.4,31.7,0.5,47.5c-0.1,1.4,1.7,1.9,2.6,1.1c5-4.4,10-8.8,14.9-13.2
				c1.4-1.3-0.7-3.4-2.1-2.1c-5,4.4-10,8.8-14.9,13.2c0.9,0.4,1.7,0.7,2.6,1.1c0.9-15.8,0.7-31.7-0.5-47.5
				C815.5,304.7,812.5,304.7,812.6,306.6L812.6,306.6z" style="fill:#161616;"/>
		</g>
	</g>
	<g>
		<g>
			<path d="M791,322c-0.4-1.1-1.7-5.5,0.7-5.5c1.4,0,1.4,2.4,1.4,3.3c0,0.9,0,2.4-0.7,3.2c-0.7,0.9-1.7,0.2-2-0.8
				c-0.3-1-0.1-2.1,0-3.1c0.3-1.9-2.6-2.7-2.9-0.8c-0.5,3.2-0.1,8.4,4.4,8.1c3.2-0.2,4.1-4,4.1-6.7c0-2.8-1.2-6.7-4.8-6.3
				c-4.7,0.6-4.4,6-3.3,9.3C788.7,324.6,791.6,323.8,791,322L791,322z" style="fill:#161616;"/>
		</g>
	</g>
	<g>
		<g>
			<path d="M793.1,321.1c-0.7-0.8-0.7-2.2,0-3.1c-0.8-0.1-1.6-0.2-2.4-0.3c0.8,1.1,1,2.7,0.1,3.8
				c0.8,0.1,1.6,0.2,2.4,0.3c-0.3-0.5-2.4-3.4-0.7-3.5c-0.2,0,0-0.3-0.1,0.2c0,0.4,0.1,0.9,0.1,1.4c0,0.3-0.2,1.6-0.7,1.3
				c-1.6-1.1-3.1,1.5-1.5,2.6c1.8,1.2,4.1,0,4.8-1.8c0.7-1.7,0.7-5.1-1.1-6.2c-1.6-1-3.8-0.1-4.7,1.4c-1.2,2.1,0,4.4,1.2,6.2
				c0.5,0.7,1.7,1.1,2.4,0.3c1.7-2.1,2-5.1,0.4-7.4c-0.5-0.7-1.7-1.1-2.4-0.3c-1.8,2.2-1.8,5.1,0,7.3
				C792.2,324.6,794.3,322.5,793.1,321.1L793.1,321.1z" style="fill:#161616;"/>
		</g>
	</g>
	<g>
		<g>
			<path d="M849.2,317.9c-1-0.9-2.2-3-0.4-3.9c1.8-0.9,2.1,1.5,2.1,2.7c0,0.7,0.2,3.5-1,3.5c-1.1,0-1.7-2.3-2-3
				c-0.5-1.8-3.4-1.1-2.9,0.8c0.8,2.6,2.8,6.1,6,5c3.1-1,3.2-5.6,2.7-8.2c-0.6-3.1-3.7-5.1-6.6-3.3c-3.2,2-2.5,6.2,0,8.5
				C848.5,321.3,850.6,319.2,849.2,317.9L849.2,317.9z" style="fill:#161616;"/>
		</g>
	</g>
	<g>
		<g>
			<path d="M851.3,318.7c-0.4-1.3-0.5-2.6-0.2-3.9c-0.7,0.3-1.5,0.6-2.2,0.9c0.7,0.4,0.7,1.7,0,2.1
				c0.7,0.3,1.5,0.6,2.2,0.9c-0.6-1.3-1.1-2.7-1.7-4c-0.3-0.7-1-1.3-1.8-1c-0.7,0.2-1.4,1.1-1,1.8c0.6,1.3,1.1,2.7,1.7,4
				c0.4,0.9,1.3,1.5,2.2,0.9c2.6-1.6,2.6-5.7,0-7.3c-0.8-0.5-2-0.1-2.2,0.9c-0.4,1.9-0.3,3.7,0.2,5.5
				C849,321.3,851.8,320.5,851.3,318.7L851.3,318.7z" style="fill:#161616;"/>
		</g>
	</g>
	<g>
		<g>
			<path d="M786.7,303.8c3.2-5.9,11.1-6.7,15.1-1.1c1.1,1.6,3.7,0.1,2.6-1.5c-5.3-7.3-15.9-7-20.3,1.1
				C783.2,304,785.8,305.5,786.7,303.8L786.7,303.8z" style="fill:#161616;"/>
		</g>
	</g>
	<g>
		<g>
			<path d="M839.2,303.5c4.3-7.1,14.4-6.5,17.5,1.3c0.7,1.8,3.6,1,2.9-0.8c-4.1-10.2-17.3-11.5-23-2
				C835.6,303.6,838.2,305.1,839.2,303.5L839.2,303.5z" style="fill:#161616;"/>
		</g>
	</g>
	<g>
		<g>
			<path d="M744.4,277.1c52,3,103.9,7.2,155.7,12.6c5.8,0.6,5.7-8.4,0-9c-51.8-5.5-103.7-9.7-155.7-12.6
				C738.6,267.8,738.6,276.8,744.4,277.1L744.4,277.1z" style="fill:#161616;"/>
		</g>
	</g>
	<path d="M778.1,270.5c0.8-7.7,4.1-27.5,20-43.7c21.5-21.9,59-29.5,88.6-12c23.2,13.8,36.7,40.1,35.1,68
		C873.9,278.8,826,274.6,778.1,270.5z" style="fill:#5222D0;"/>
	<path d="M923.5,341.7c-0.1,0.8-1.4,7.5-7.4,10.5c-3.1,1.5-6,1.5-7.4,1.3c6.1,7.8,31.1,41.6,23.2,83
		c-2.1,10.8-6,19.9-10,27.1c6.6-4.1,15.2-10.4,23.6-19.7c10.4-11.5,16.3-23,19.7-31c-6.3-7.9-13.2-17.6-19.7-29.3
		c-8.5-15.3-13.9-29.7-17.5-41.5C926.4,342,925,341.8,923.5,341.7z" style="opacity:0.11;fill:#3D3D3D;"/>
	<path d="M812.5,307.2c-3.6,13.8-7.3,27.7-10.9,41.5c4.1,1.6,8.2,3.2,12.2,4.8C813.4,338,813,322.6,812.5,307.2z" style="opacity:0.12;fill:#3D3D3D;"/>
	<path d="M843.8,209.3c-10.3,9.4-4.6,37.8,13.5,67.9c21.4,1.9,42.8,3.9,64.2,5.8c0.7-8.8,0.8-25.9-9.1-42.3
		C895.5,212.8,856.5,197.8,843.8,209.3z" style="opacity:0.69;fill:#3A1DA3;"/>
</g>
</svg>